<svg width="1478" height="1621" viewBox="0 0 1478 1621" fill="none" xmlns="http://www.w3.org/2000/svg">
<circle cx="739" cy="881.796" r="719" fill="#C80202" stroke="black" stroke-width="40"/>
<path d="M739 1439.8C1053.4 1439.8 1309 1190.14 1309 881.296C1309 572.449 1053.4 322.796 739 322.796C424.598 322.796 169 572.449 169 881.296C169 1190.14 424.598 1439.8 739 1439.8Z" fill="#EBEBEB" stroke="black" stroke-width="40"/>
<line x1="740.085" y1="347.796" x2="740.085" y2="452.778" stroke="black" stroke-width="10" stroke-linecap="round"/>
<line x1="5" y1="-5" x2="111.216" y2="-5" transform="matrix(0.714538 0.699597 -0.714538 0.699597 349.497 500.896)" stroke="black" stroke-width="10" stroke-linecap="round"/>
<line x1="5" y1="-5" x2="111.216" y2="-5" transform="matrix(0.714538 0.699597 -0.714538 0.699597 1044.73 1180.73)" stroke="black" stroke-width="10" stroke-linecap="round"/>
<line x1="740.085" y1="1309.81" x2="740.085" y2="1414.8" stroke="black" stroke-width="10" stroke-linecap="round"/>
<line x1="5" y1="-5" x2="53.6374" y2="-5" transform="matrix(0.967267 -0.253759 0.263965 0.964532 207.595 1020.23)" stroke="black" stroke-width="10" stroke-linecap="round"/>
<line x1="5" y1="-5" x2="53.4143" y2="-5" transform="matrix(0.87054 -0.492097 0.507944 0.86139 262.398 1150.07)" stroke="black" stroke-width="10" stroke-linecap="round"/>
<line x1="5" y1="-5" x2="52.8005" y2="-5" transform="matrix(0.507944 -0.86139 0.87054 0.492097 463.51 1347.17)" stroke="black" stroke-width="10" stroke-linecap="round"/>
<line x1="5" y1="-5" x2="53.4143" y2="-5" transform="matrix(0.87054 0.492097 -0.507944 0.86139 1163.93 1122.76)" stroke="black" stroke-width="10" stroke-linecap="round"/>
<line x1="5" y1="-5" x2="53.6374" y2="-5" transform="matrix(0.967267 0.253759 -0.263965 0.964532 207.105 743.797)" stroke="black" stroke-width="10" stroke-linecap="round"/>
<line x1="5" y1="-5" x2="53.6374" y2="-5" transform="matrix(0.967267 0.253759 -0.263965 0.964532 1213.15 1007.78)" stroke="black" stroke-width="10" stroke-linecap="round"/>
<line x1="5" y1="-5" x2="52.8005" y2="-5" transform="matrix(0.507944 0.86139 -0.87054 0.492097 983.661 1298.39)" stroke="black" stroke-width="10" stroke-linecap="round"/>
<line x1="5" y1="-5" x2="52.5742" y2="-5" transform="matrix(0.263965 0.964532 -0.967267 0.253759 864.267 1346.5)" stroke="black" stroke-width="10" stroke-linecap="round"/>
<line x1="5" y1="-5" x2="53.4143" y2="-5" transform="matrix(0.87054 -0.492097 0.507944 0.86139 1164.22 640.312)" stroke="black" stroke-width="10" stroke-linecap="round"/>
<line x1="5" y1="-5" x2="53.6374" y2="-5" transform="matrix(0.967267 -0.253759 0.263965 0.964532 1213.45 756.28)" stroke="black" stroke-width="10" stroke-linecap="round"/>
<line x1="5" y1="-5" x2="52.8005" y2="-5" transform="matrix(0.507944 -0.86139 0.87054 0.492097 984.151 464.448)" stroke="black" stroke-width="10" stroke-linecap="round"/>
<line x1="5" y1="-5" x2="52.5742" y2="-5" transform="matrix(0.263965 -0.964532 0.967267 0.253759 865.734 416.533)" stroke="black" stroke-width="10" stroke-linecap="round"/>
<line x1="5" y1="-5" x2="52.5742" y2="-5" transform="matrix(0.263965 0.964532 -0.967267 0.253759 594.747 361.575)" stroke="black" stroke-width="10" stroke-linecap="round"/>
<line x1="5" y1="-5" x2="52.8005" y2="-5" transform="matrix(0.507944 0.86139 -0.87054 0.492097 463.021 415.618)" stroke="black" stroke-width="10" stroke-linecap="round"/>
<line x1="5" y1="-5" x2="53.4143" y2="-5" transform="matrix(0.87054 0.492097 -0.507944 0.86139 262.398 613.004)" stroke="black" stroke-width="10" stroke-linecap="round"/>
<line x1="301.437" y1="881.505" x2="194" y2="881.505" stroke="black" stroke-width="10" stroke-linecap="round"/>
<line x1="1284" y1="881.505" x2="1176.56" y2="881.505" stroke="black" stroke-width="10" stroke-linecap="round"/>
<line x1="5" y1="-5" x2="111.216" y2="-5" transform="matrix(0.714537 -0.699597 0.714538 0.699597 1044.83 581.862)" stroke="black" stroke-width="10" stroke-linecap="round"/>
<line x1="5" y1="-5" x2="111.216" y2="-5" transform="matrix(0.714537 -0.699597 0.714538 0.699597 350.085 1261.98)" stroke="black" stroke-width="10" stroke-linecap="round"/>
<line x1="5" y1="-5" x2="52.5742" y2="-5" transform="matrix(0.263965 -0.964532 0.967267 0.253759 596.117 1401.35)" stroke="black" stroke-width="10" stroke-linecap="round"/>
<line x1="15" y1="-15" x2="260.294" y2="-15" transform="matrix(0.714538 0.699597 -0.714538 0.699597 540 710.796)" stroke="black" stroke-width="30" stroke-linecap="round"/>
<line x1="904.071" y1="886.796" x2="754" y2="886.796" stroke="black" stroke-width="30" stroke-linecap="round"/>
<circle cx="739" cy="885.796" r="20" fill="black"/>
<path d="M764.963 136.174C728.697 158.959 665.575 156.028 648.263 168.909L626.908 333.296C672.108 321.471 693.092 338.223 697.935 348.077C708.474 386.333 747.203 405.08 765.25 409.672C767.311 412.908 855.503 420.369 934.5 422.796C1012.99 425.207 1051.24 356.28 1063.76 333.727L1064 333.297C1070.56 316.998 1055.09 281.463 1018.5 221.295C981.915 161.127 882.388 141.894 856.611 132.913C841.172 124.506 801.229 113.388 764.963 136.174Z" fill="#C80202"/>
<path d="M627.003 333.295C672.203 321.47 693.187 338.222 698.03 348.076C708.57 386.332 779.453 403.204 797.5 407.796C799.561 411.032 850.003 419.369 929 421.796C1008 424.223 1050.74 355.387 1063 333.296C1069.57 316.997 1070.59 297.464 1034 237.296C997.415 177.127 929.777 145.154 904 136.173C888.561 127.766 801.324 113.387 765.058 136.173C728.792 158.958 673.002 164.294 648.359 168.909L587.502 178.794" stroke="black" stroke-width="40"/>
<circle cx="960" cy="252.796" r="34" fill="white" stroke="black" stroke-width="20"/>
<circle cx="936" cy="342.796" r="34" fill="white" stroke="black" stroke-width="20"/>
</svg>
